# Blender v2.79 (sub 0) OBJ File: 'drone_base.blend'
# www.blender.org
mtllib drone_base.mtl
o drone_base_Sphere.001
v 3.621345 -4.691080 -3.720901
v 3.849914 -4.290323 -3.534202
v 3.858899 -3.727421 -3.975091
v 3.955174 -3.408762 -3.634231
v 3.761144 -2.743036 -3.867287
v 3.762787 -2.552676 -3.447158
v 3.175116 -2.176401 -3.520404
v 3.302452 -1.917386 -3.406727
v 2.956571 -1.576919 -2.900414
v 2.090525 -1.573018 -2.186483
v 2.223750 -1.810894 -1.897933
v 1.491213 -2.049659 -1.660462
v 1.675564 -2.215374 -1.405513
v 1.087917 -3.295102 -1.004669
v 1.392761 -3.409338 -1.059447
v 1.141048 -4.268522 -1.455559
v 1.378656 -4.691082 -1.279101
v 1.602794 -4.481122 -1.266728
v 1.776296 -5.320898 -1.870941
v 2.500000 -5.581874 -2.500000
v 3.056734 -5.364599 -3.152587
v 3.371511 -5.079865 -3.053607
v 3.282826 -4.747107 -3.627395
v 2.331305 -5.335907 -2.668694
v 2.827465 -5.303048 -2.487814
v 2.083948 -5.178611 -1.759456
v 1.608235 -4.985058 -1.947869
v 1.044614 -3.428466 -1.366246
v 1.245104 -2.561802 -1.575874
v 2.095294 -1.736465 -2.428334
v 3.603768 -3.451602 -3.933565
v 3.062779 -1.821263 -2.723294
v 3.671153 2.473712 -3.769171
v 3.849915 2.780746 -3.534202
v 3.872415 3.486442 -3.986759
v 3.955174 3.662306 -3.634231
v 3.840479 4.443737 -3.725496
v 3.438232 4.529197 -3.755669
v 3.342796 5.230810 -3.229630
v 2.823690 5.223091 -3.159484
v 2.634094 5.546962 -2.729631
v 2.523590 5.391826 -2.211661
v 1.730833 5.296714 -1.804892
v 1.990061 5.117869 -1.669807
v 1.494713 4.347333 -1.173553
v 1.159522 4.443737 -1.274504
v 1.141101 3.343647 -1.024909
v 1.446008 2.989758 -1.108437
v 1.460975 2.233468 -1.368835
v 1.407015 2.176996 -1.637907
v 2.090525 1.573018 -2.186482
v 2.167775 1.789062 -1.849502
v 2.001681 1.817589 -2.346476
v 2.740019 1.528782 -2.727460
v 3.284894 1.810346 -3.284894
v 3.397740 2.088894 -3.059367
v 2.834780 1.875943 -3.172938
v 2.667109 1.727372 -2.332891
v 1.402992 2.312398 -1.735311
v 1.024973 3.443902 -1.345781
v 1.288453 4.525369 -1.624907
v 3.626365 3.209881 -3.957809
v 1.848375 5.190913 -2.185142
v 3.509334 4.910683 -3.165004
v -1.303275 2.433620 1.628981
v -1.024909 3.343647 1.141101
v -1.077444 3.412283 1.411638
v -1.238856 4.328032 1.132714
v -1.717174 4.747106 1.372605
v -1.686915 5.235772 1.686915
v -2.374493 5.574837 2.374493
v -3.196210 5.344342 2.999372
v -2.929877 5.169993 3.255997
v -3.691258 4.706503 3.691259
v -3.467756 4.310304 3.802263
v -3.951264 3.670258 3.951264
v -3.807103 2.635246 3.807103
v -3.813407 2.766094 3.482383
v -3.313086 1.835298 3.313086
v -3.123966 1.847318 2.780166
v -2.714151 1.522690 2.714151
v -2.114917 1.611540 2.019909
v -1.921916 1.716483 2.185153
v -1.491213 2.049658 1.660462
v -1.679173 2.215800 1.405023
v -2.206262 1.871459 1.871257
v -2.261395 1.747277 2.596020
v -3.165003 2.160384 3.509333
v -3.604125 3.408551 3.932994
v -3.923645 3.654183 3.590067
v -3.624322 4.721553 3.291454
v -1.366246 3.428468 1.044614
v -2.655006 5.333444 2.319199
v -2.316294 5.324413 2.657472
v -1.173553 4.347332 1.494712
v -1.650135 5.029675 1.987296
v -1.378656 -4.691080 1.279100
v -1.298047 -4.641424 1.618550
v -1.004669 -3.295102 1.087917
v -1.400371 -2.186702 1.632189
v -2.057269 -1.586612 2.057269
v -2.261278 -1.852630 1.923334
v -2.965751 -1.589265 2.846008
v -2.425797 -1.722711 2.755467
v -3.086712 -1.752234 3.211712
v -3.291651 -2.335571 3.635700
v -3.691259 -2.364565 3.691259
v -3.951264 -3.400810 3.951264
v -3.807103 -4.435822 3.807103
v -3.813408 -4.304974 3.482383
v -3.313087 -5.235770 3.313086
v -3.360482 -5.016178 3.021738
v -2.610869 -5.550475 2.691662
v -2.727902 -5.368435 2.401769
v -1.853987 -5.193914 2.192391
v -1.882467 -5.387933 1.882466
v -1.824885 -4.894668 1.479596
v -2.723295 -5.249805 3.062778
v -3.371663 -4.541116 3.706493
v -3.604125 -3.662518 3.932994
v -3.879121 -2.924539 3.537103
v -1.345782 -3.443901 1.024973
v -3.114678 -1.843018 2.774864
v -1.059447 -3.409340 1.392761
v -1.571723 -2.067212 1.918457
v -1.735312 -2.312397 1.402992
v 0.331886 0.897673 0.259227
v 0.266836 1.008763 -0.143240
v -0.358531 0.856150 -0.294719
v 0.394276 0.885104 -0.571027
v 0.509823 0.339362 0.590648
v 0.965862 0.642403 -0.424469
v 0.282455 0.648105 -0.910413
v -0.320711 0.430728 -0.708380
v 0.906476 0.189850 0.162040
v 1.149605 0.213305 -1.017507
v 0.497176 0.128489 -1.218547
v 1.203473 -0.047114 -0.420905
v 0.889534 -0.354553 -1.113139
v 0.043456 -0.330328 -1.010056
v 0.979095 -0.645557 -0.460333
v 0.458816 -0.825713 -0.692943
v -0.106755 -0.825586 -0.533402
v 0.170511 -1.017329 -0.138807
v -0.647651 0.056766 -0.511181
v 0.734772 -0.169579 0.405593
v 0.409881 -0.699301 0.476939
v -0.438989 -0.841321 0.714679
v -0.777935 -0.404899 -0.275714
v -0.762145 -0.814033 0.286623
v -0.473243 -0.361253 1.137050
v -0.985124 -0.399598 1.012032
v -1.224416 -0.149189 0.525329
v -0.052025 -0.019256 1.053861
v -1.053003 0.240819 1.066295
v -1.170918 0.318343 0.608373
v -0.545522 0.336650 1.172720
v 0.113142 0.642397 0.725380
v -0.531094 0.788398 0.756484
v -0.936396 0.503582 0.086229
v -0.486522 0.907621 0.450197
v 0.565720 -0.883653 -0.395482
v -0.468463 -0.894525 0.468463
v -0.750857 -0.781768 0.531113
v 0.731964 -0.747335 -0.681146
v 0.672636 0.745165 -0.734511
v -0.720807 0.810097 0.483977
v 0.684299 0.819196 -0.456655
v -1.497425 -2.234093 1.380772
v -1.660462 -2.049658 1.491213
v -1.393685 2.251911 1.379162
v 1.660462 2.049658 -1.491213
v 1.386219 -2.237896 -1.492667
v -0.534566 1.398930 -2.503022
v -0.032789 -0.132638 0.028433
v -0.084563 -0.009521 0.109436
v -0.318688 1.514926 -2.472113
v 0.120353 0.015284 0.088809
v 0.109437 0.009520 -0.084563
v 0.088809 -0.015284 0.120352
v -2.472112 -1.514925 -0.318688
v -2.503022 -1.398929 -0.534566
v 0.028433 0.132638 -0.032789
v 0.120352 -0.015284 0.088809
v -0.318688 -1.514926 -2.472112
v -0.084562 0.009521 0.109437
v -0.534566 -1.398929 -2.503023
v -0.032789 0.132638 0.028433
v 0.109437 -0.009520 -0.084563
v -2.503022 1.398930 -0.534566
v 0.028433 -0.132638 -0.032789
v 0.088809 0.015284 0.120353
v -2.472112 1.514926 -0.318688
v -2.567442 -3.530912 2.426021
v 2.406464 3.544754 -2.593571
v 2.455172 3.535308 -2.558222
v 2.413720 -3.524668 -2.601648
v 2.444961 -3.546303 -2.539810
v -2.570710 3.535534 2.429289
v -2.352430 -3.554756 2.606989
v -2.574853 -3.521392 2.405147
v -2.373012 -3.488027 2.627570
v -2.585144 3.488027 2.415438
v -2.362721 3.521392 2.617279
v -2.564562 3.554756 2.394856
v 2.627570 3.488027 -2.373011
v 2.606988 3.554756 -2.352430
v 2.405147 3.521391 -2.574852
v 2.394856 -3.554757 -2.564562
v 2.617279 -3.521392 -2.362721
v 2.415438 -3.488028 -2.585144
vn 0.8674 -0.3154 -0.3850
vn -0.2311 -0.1945 -0.9533
vn 0.9638 0.2413 -0.1131
vn -0.3761 0.1688 -0.9111
vn 0.8037 0.5719 0.1645
vn -0.4792 0.5405 -0.6915
vn 0.5462 0.6341 0.5473
vn -0.2881 0.4672 0.8359
vn -0.0563 0.7856 0.6162
vn -0.9777 -0.1298 0.1650
vn -0.8629 -0.5035 -0.0439
vn 0.3183 -0.3906 0.8638
vn 0.1802 -0.8178 0.5466
vn -0.4197 -0.6913 -0.5882
vn 0.6120 -0.7318 0.2998
vn 0.6891 -0.7080 -0.1545
vn -0.1282 -0.5746 -0.8083
vn 0.3938 0.9177 -0.0516
vn 0.8708 -0.4699 0.1446
vn 0.9006 -0.2547 -0.3524
vn 0.1530 -0.2366 -0.9595
vn -0.2408 0.1133 -0.9639
vn 0.1280 0.2651 -0.9557
vn -0.1171 0.5855 -0.8022
vn -0.0961 0.7742 -0.6257
vn 0.5745 0.7423 0.3449
vn 0.7202 0.4765 0.5042
vn 0.0362 0.9552 0.2938
vn -0.5873 0.7144 -0.3803
vn -0.0841 0.5662 0.8200
vn -0.9388 0.1485 -0.3108
vn -0.9255 0.0985 0.3657
vn -0.9089 -0.3322 0.2520
vn -0.5380 -0.8126 0.2242
vn 0.3241 -0.8284 0.4568
vn -0.2629 -0.7331 -0.6272
vn 0.8055 -0.3243 -0.4960
vn 0.7469 0.4254 -0.5110
vn 0.1277 0.9720 0.1974
vn 0.9368 -0.3369 -0.0940
vn -0.0526 -0.2720 -0.9609
vn 0.9608 0.2072 -0.1844
vn 0.9819 0.0859 0.1689
vn 0.3727 0.7316 0.5708
vn -0.5354 0.7224 -0.4376
vn -0.1062 0.7678 0.6318
vn -0.0347 0.2514 0.9673
vn 0.2694 -0.2232 0.9368
vn 0.4556 -0.5504 0.6997
vn 0.4880 -0.7425 0.4589
vn 0.5359 -0.8392 -0.0930
vn -0.3198 -0.5526 -0.7697
vn -0.4276 -0.3237 0.8440
vn -0.6237 0.3662 0.6906
vn -0.1300 -0.8954 0.4258
vn -0.5198 0.8532 0.0425
vn 0.9430 -0.2777 -0.1833
vn -0.3338 -0.1798 -0.9254
vn 0.0510 0.2877 -0.9564
vn 0.5559 0.7905 -0.2570
vn 0.6851 0.5564 0.4701
vn 0.0725 0.5696 0.8187
vn -0.6623 0.7409 0.1111
vn 0.1193 0.2134 0.9697
vn -0.9489 0.2763 0.1525
vn 0.1737 -0.2025 0.9638
vn 0.3417 -0.4412 0.8298
vn -0.6962 -0.6231 -0.3564
vn -0.5748 -0.7772 -0.2560
vn 0.5899 -0.7077 0.3888
vn -0.2816 -0.8597 -0.4262
vn 0.8027 -0.5359 0.2617
vn -0.0629 -0.6269 -0.7766
vn 0.1741 -0.9671 0.1854
vn -0.6917 -0.4316 0.5791
vn -0.4064 0.3927 0.8250
vn -0.2575 -0.8384 0.4805
vn -0.0920 0.9195 0.3823
vn 0.7464 0.0902 0.6593
vn 0.5101 0.8433 0.1694
vn 0.5062 0.8488 0.1525
vn 0.6063 0.7216 -0.3343
vn 0.8923 0.3092 0.3289
vn 0.1781 0.5553 -0.8123
vn -0.4990 0.1024 -0.8606
vn 0.9169 -0.3289 -0.2263
vn -0.1238 -0.3065 -0.9438
vn 0.6253 -0.6773 -0.3877
vn 0.8382 -0.3422 0.4246
vn -0.2076 -0.6449 -0.7355
vn 0.5062 -0.7767 0.3749
vn -0.5601 -0.4800 -0.6752
vn 0.1640 -0.9555 -0.2451
vn -0.3072 -0.9228 -0.2325
vn 0.0116 -0.9777 0.2099
vn 0.5853 -0.2553 0.7696
vn -0.1312 -0.6601 0.7396
vn -0.4099 -0.8008 0.4367
vn -0.8286 -0.4635 -0.3139
vn -0.8021 -0.5903 0.0907
vn -0.8737 -0.0016 -0.4865
vn 0.6359 0.0005 0.7717
vn -0.9637 0.0643 0.2590
vn -0.9201 0.1681 -0.3536
vn -0.2716 0.6568 0.7034
vn -0.6689 0.6852 0.2882
vn 0.4956 0.2838 0.8209
vn 0.2104 0.8125 0.5437
vn -0.7328 0.3255 -0.5976
vn 0.0712 0.9644 0.2547
vn 0.5358 0.8100 -0.2383
vn 0.7905 0.2275 0.5686
vn -0.1628 -0.6788 0.7160
vn -0.3320 -0.3433 -0.8786
vn -0.7607 -0.1406 -0.6337
vn -0.1404 0.4970 -0.8563
vn -0.2855 0.3814 -0.8792
vn -0.1723 0.5990 0.7820
vn 0.1652 -0.5855 -0.7937
vn 0.8227 -0.5569 0.1139
vn 0.3327 -0.6899 -0.6428
vn -0.3327 0.6899 0.6428
vn 0.6481 -0.3998 -0.6481
vn -0.6481 0.3998 0.6481
vn 0.8625 -0.5052 0.0286
vn 0.9794 -0.1341 -0.1513
vn -0.3100 -0.1453 -0.9396
vn 0.9145 0.1327 -0.3823
vn -0.0494 0.1039 -0.9934
vn 0.7729 0.5769 -0.2644
vn -0.1013 0.4411 -0.8917
vn 0.8104 0.5313 0.2469
vn -0.4806 0.5396 -0.6912
vn -0.4202 0.7480 -0.5138
vn 0.3917 0.7905 0.4708
vn -0.7940 0.3918 -0.4648
vn 0.1091 -0.1691 0.9795
vn -0.9033 0.4182 -0.0960
vn -0.9165 0.3490 0.1958
vn 0.2500 0.2144 0.9442
vn -0.9722 0.2323 0.0307
vn -0.6725 -0.5822 -0.4569
vn -0.8346 -0.2684 0.4811
vn -0.8713 -0.4691 -0.1442
vn 0.0414 -0.6702 0.7410
vn 0.5724 -0.8074 -0.1431
vn 0.4986 -0.6124 0.6136
vn 0.6010 -0.7553 0.2613
vn -0.5212 -0.3921 -0.7581
vn -0.4929 0.2519 0.8328
vn 0.6018 -0.3365 -0.7243
vn -0.4519 -0.3614 0.8156
vn 0.5065 0.6951 -0.5102
vn -0.1199 -0.9867 -0.1094
vn 0.5465 0.2132 -0.8098
vn -0.5995 0.6487 0.4688
vn -0.0699 0.9073 0.4147
vn 0.0458 -0.9101 0.4119
vn -0.3866 -0.3213 -0.8645
vn -0.5424 -0.7932 0.2769
vn -0.0028 0.9852 -0.1712
vn 0.8642 -0.5032 0.0000
vn -0.8556 0.4201 -0.3025
vn 0.9775 -0.1351 -0.1621
vn 0.9546 0.1077 -0.2778
vn 0.9050 0.1780 0.3864
vn 0.1867 0.6055 -0.7737
vn 0.8711 0.4769 0.1174
vn -0.6373 0.4537 -0.6229
vn 0.2166 0.7686 0.6019
vn 0.4290 -0.2550 0.8666
vn -0.0440 0.5608 0.8268
vn -0.2230 0.2192 0.9498
vn 0.3015 0.0349 0.9528
vn -0.1206 -0.3253 0.9379
vn -0.9149 -0.3339 0.2268
vn -0.9377 -0.2209 -0.2683
vn -0.7786 -0.4711 -0.4145
vn -0.0438 -0.8364 0.5463
vn -0.5395 -0.5995 -0.5912
vn 0.3571 -0.8062 0.4717
vn 0.7026 -0.5851 0.4050
vn 0.5782 -0.7146 -0.3937
vn 0.3885 0.9182 -0.0771
vn -0.7103 -0.3370 0.6180
vn -0.7960 0.1612 0.5834
vn 0.2873 -0.9533 0.0935
vn -0.3109 0.6322 0.7097
vn 0.3265 0.6307 -0.7040
vn 0.6774 0.6288 0.3818
vn -0.4142 -0.9097 0.0308
vn -0.3682 0.9254 0.0902
vn -0.3459 -0.7687 0.5381
vn 0.4414 -0.0588 -0.8954
vn 0.9584 -0.1702 0.2293
vn 0.1985 -0.2723 -0.9415
vn 0.2839 0.0536 -0.9573
vn -0.3435 0.1396 -0.9287
vn 0.8348 0.5209 -0.1784
vn 0.8659 0.4556 0.2066
vn 0.0495 0.5381 -0.8414
vn -0.4189 0.5457 -0.7257
vn -0.9669 0.2251 -0.1204
vn 0.1152 0.8732 0.4736
vn -0.8437 0.5229 -0.1216
vn 0.2628 0.3949 0.8803
vn -0.9909 -0.1243 -0.0516
vn 0.1428 0.1208 0.9824
vn -0.0578 -0.1456 0.9877
vn -0.8702 -0.4212 -0.2557
vn 0.0110 -0.5205 0.8538
vn -0.5739 -0.5745 -0.5835
vn 0.3876 -0.5994 0.7004
vn -0.6263 -0.7420 -0.2390
vn 0.3459 -0.9207 0.1807
vn 0.7189 -0.2962 -0.6288
vn 0.7553 -0.1584 0.6359
vn 0.8198 -0.3651 0.4411
vn 0.1752 -0.7614 -0.6241
vn -0.7816 -0.1345 0.6091
vn 0.5429 -0.8397 0.0128
vn 0.9180 0.1875 0.3495
vn -0.7421 0.3039 0.5974
vn 0.3900 -0.6552 -0.6470
vn 0.4272 0.4218 -0.7997
vn 0.6644 0.6996 -0.2630
vn -0.7585 0.2366 -0.6073
vn 0.1123 -0.9839 -0.1387
vn 0.7787 0.1699 -0.6039
vn 0.1508 0.9724 0.1781
vn 0.0226 0.9191 -0.3933
vn -0.2231 -0.9545 0.1980
vn -0.5043 0.8567 0.1084
vn -0.6011 -0.6992 0.3870
vn 0.9792 -0.1690 0.1126
vn 0.2612 -0.1993 -0.9445
vn -0.3790 0.5212 -0.7647
vn -0.1736 0.2578 -0.9505
vn 0.7875 0.4743 -0.3934
vn -0.2045 0.3634 -0.9089
vn 0.7166 0.6824 0.1441
vn -0.5436 0.6005 -0.5864
vn 0.2778 0.9047 0.3230
vn -0.8532 0.4335 -0.2901
vn 0.2852 0.8369 0.4673
vn 0.5143 0.3786 0.7695
vn -0.9862 -0.0735 -0.1483
vn 0.1821 0.1739 0.9678
vn -0.8802 -0.4414 -0.1744
vn 0.0836 -0.4857 0.8701
vn 0.4459 0.7388 -0.5053
vn 0.2607 -0.7100 0.6542
vn 0.6285 -0.5002 0.5956
vn -0.4521 -0.5320 -0.7160
vn 0.7686 -0.6334 -0.0898
vn 0.1390 -0.8716 -0.4701
vn 0.4368 -0.2934 -0.8503
vn -0.7743 0.2560 0.5787
vn 0.7075 -0.6662 -0.2358
vn 0.5643 0.3429 -0.7510
vn -0.7532 -0.4684 0.4618
vn 0.7142 0.5146 0.4745
vn 0.8693 0.0608 -0.4905
vn -0.2320 0.9577 -0.1703
vn 0.3489 0.9220 -0.1679
vn -0.2953 -0.9511 0.0901
vn -0.4779 0.8167 0.3234
vn -0.2189 0.8324 -0.5091
vn -0.1520 0.9365 -0.3160
vn 0.2870 0.9397 -0.1861
vn -0.2096 -0.0874 0.9739
vn -0.4403 0.6055 -0.6630
vn 0.0627 0.8084 -0.5852
vn 0.2025 0.5953 -0.7776
vn -0.4058 0.3363 -0.8498
vn 0.9438 0.3255 0.0569
vn -0.5630 0.0574 -0.8245
vn 0.2911 0.0277 -0.9563
vn 0.8720 -0.0906 0.4811
vn 0.8893 -0.3597 -0.2824
vn 0.2441 -0.7602 -0.6021
vn -0.1136 -0.6014 -0.7908
vn 0.7858 -0.4209 0.4531
vn 0.4784 -0.8676 -0.1356
vn 0.4839 -0.8399 0.2457
vn -0.1056 -0.9216 -0.3736
vn -0.6437 -0.1957 -0.7399
vn -0.5915 -0.6598 -0.4634
vn 0.2521 -0.8963 0.3649
vn -0.2347 -0.9707 -0.0506
vn -0.3406 -0.9300 0.1384
vn 0.3063 -0.6164 0.7254
vn -0.7736 -0.6226 0.1179
vn 0.4606 -0.3712 0.8063
vn 0.2152 -0.0276 0.9762
vn -0.1875 0.6581 0.7292
vn -0.9146 -0.1294 0.3831
vn -0.8775 0.0678 -0.4748
vn -0.7465 0.6575 -0.1020
vn 0.4298 0.3131 0.8469
vn -0.5239 0.7390 0.4236
vn 0.1852 0.6627 0.7256
vn -0.3970 0.9084 -0.1310
vn -0.6168 0.7488 -0.2427
vn 0.0983 0.9225 0.3734
vn -0.6680 0.4874 -0.5623
vn -0.2121 0.9718 -0.1036
vn 0.6094 0.5393 0.5813
vn -0.1221 0.5500 -0.8262
vn 0.7842 0.5935 -0.1813
vn -0.7800 -0.6043 0.1626
vn -0.6931 -0.6738 0.2561
vn -0.6420 -0.1135 -0.7582
vn 0.8213 -0.5699 0.0248
vn 0.7292 -0.6663 -0.1559
vn 0.8743 0.3956 0.2812
vn 0.5836 -0.6458 -0.4922
vn 0.8980 -0.4400 -0.0050
vn 0.8269 0.2798 0.4879
vn -0.5710 -0.2082 -0.7941
vn -0.7771 0.6289 0.0239
vn 0.6178 0.1576 0.7704
vn -0.2847 0.8139 0.5064
vn -0.9297 -0.3664 -0.0374
vn 0.5064 -0.8139 -0.2847
vn 0.1464 -0.5000 0.8536
vn -0.0374 0.3664 -0.9297
vn -0.4922 0.6458 0.5836
vn -0.2847 -0.8139 0.5064
vn 0.8536 0.5000 0.1464
vn 0.5836 0.6458 -0.4922
vn -0.9297 0.3664 -0.0374
vn 0.1464 0.5000 0.8536
vn -0.4922 -0.6458 0.5836
vn -0.0374 -0.3664 -0.9297
vn 0.5064 0.8139 -0.2847
vn 0.8536 -0.5000 0.1464
vn -0.7515 -0.6412 0.1553
vn 0.7515 0.6412 -0.1553
vn 0.6481 0.3998 -0.6481
vn -0.6481 -0.3998 0.6481
usemtl Material
s off
f 3//1 2//1 1//1
f 23//2 3//2 1//2
f 5//3 6//3 4//3
f 7//4 5//4 31//4
f 8//5 9//5 6//5
f 30//6 9//6 7//6
f 11//7 32//7 9//7
f 14//8 13//8 173//8
f 11//9 10//9 12//9 13//9
f 16//10 14//10 28//10
f 19//11 17//11 16//11
f 17//12 26//12 18//12
f 19//13 20//13 26//13
f 24//14 21//14 20//14
f 22//15 25//15 20//15
f 1//16 22//16 21//16
f 23//17 1//17 21//17
f 26//18 24//18 27//18
f 34//19 56//19 55//19
f 35//20 34//20 33//20
f 62//21 35//21 33//21
f 38//22 35//22 62//22
f 38//23 37//23 35//23
f 40//24 39//24 38//24
f 41//25 39//25 40//25
f 41//26 42//26 39//26
f 39//27 42//27 64//27
f 43//28 42//28 41//28
f 63//29 43//29 41//29
f 46//30 45//30 43//30
f 61//31 60//31 46//31
f 60//32 47//32 46//32
f 50//33 49//33 60//33
f 51//34 172//34 50//34
f 51//35 54//35 52//35
f 57//36 55//36 54//36
f 45//37 60//37 61//37
f 48//38 59//38 60//38
f 58//39 57//39 53//39
f 66//40 65//40 171//40
f 85//41 92//41 171//41
f 68//42 95//42 66//42
f 66//43 95//43 67//43
f 73//44 94//44 71//44
f 93//45 72//45 71//45
f 74//46 73//46 72//46
f 76//47 75//47 74//47
f 77//48 88//48 89//48
f 81//49 87//49 88//49
f 83//50 87//50 81//50
f 84//51 83//51 82//51
f 86//52 85//52 82//52
f 95//53 69//53 92//53
f 65//54 92//54 85//54
f 96//55 93//55 69//55
f 65//56 85//56 86//56
f 99//57 98//57 97//57
f 117//58 122//58 97//58
f 169//59 99//59 122//59
f 170//60 101//60 100//60
f 101//61 104//61 125//61
f 107//62 106//62 105//62
f 103//63 107//63 105//63
f 108//64 106//64 107//64
f 121//65 108//65 107//65
f 109//66 119//66 120//66
f 111//67 118//67 119//67
f 114//68 111//68 112//68
f 114//69 113//69 111//69
f 116//70 115//70 113//70
f 114//71 116//71 113//71
f 98//72 115//72 116//72
f 117//73 97//73 116//73
f 104//74 123//74 102//74
f 124//75 126//75 122//75
f 98//76 122//76 117//76
f 125//77 102//77 126//77
f 115//78 117//78 114//78
f 131//79 146//79 135//79
f 128//80 132//80 168//80
f 127//81 132//81 128//81
f 166//82 132//82 136//82
f 135//83 138//83 132//83
f 136//84 137//84 133//84
f 137//85 140//85 134//85
f 138//86 141//86 136//86
f 137//87 139//87 140//87
f 141//88 165//88 139//88
f 146//89 141//89 138//89
f 140//90 142//90 143//90
f 162//91 141//91 144//91
f 143//92 149//92 140//92
f 162//93 144//93 142//93
f 144//94 150//94 143//94
f 148//95 163//95 144//95
f 146//96 154//96 147//96
f 148//97 151//97 152//97
f 148//98 152//98 164//98
f 150//99 153//99 149//99
f 152//100 153//100 150//100
f 149//101 153//101 145//101
f 154//102 146//102 131//102
f 155//103 156//103 153//103
f 156//104 160//104 153//104
f 155//105 157//105 159//105
f 156//106 155//106 167//106
f 131//107 158//107 154//107
f 158//108 127//108 159//108
f 160//109 134//109 145//109
f 161//110 127//110 128//110
f 166//111 168//111 132//111
f 162//112 13//112 165//112
f 162//113 173//113 13//113
f 163//114 169//114 164//114
f 142//115 12//115 173//115
f 171//116 161//116 85//116
f 85//117 161//117 167//117
f 49//118 130//118 168//118
f 172//119 166//119 50//119
f 172//120 168//120 166//120
f 196//121 194//121 195//121
f 195//122 194//122 196//122
f 204//123 203//123 205//123
f 204//124 205//124 203//124
f 210//123 209//123 211//123
f 210//124 211//124 209//124
f 1//125 2//125 22//125
f 3//126 4//126 2//126
f 23//127 31//127 3//127
f 3//128 5//128 4//128
f 31//129 5//129 3//129
f 5//130 8//130 6//130
f 7//131 8//131 5//131
f 6//132 9//132 32//132
f 7//133 9//133 8//133
f 30//134 10//134 9//134
f 10//135 11//135 9//135
f 12//136 10//136 30//136 29//136
f 18//137 15//137 14//137 17//137
f 29//138 173//138 12//138
f 173//139 29//139 14//139
f 14//140 15//140 13//140
f 29//141 28//141 14//141
f 19//142 27//142 24//142 20//142
f 16//143 17//143 14//143
f 27//144 19//144 16//144
f 17//145 19//145 26//145
f 13//146 29//146 30//146 11//146
f 26//147 20//147 25//147
f 21//148 22//148 20//148
f 24//149 23//149 21//149
f 2//150 4//150 31//150 23//150
f 15//151 28//151 29//151 13//151
f 4//152 6//152 7//152 31//152
f 26//153 27//153 16//153 18//153
f 32//154 11//154 30//154
f 18//155 16//155 28//155 15//155
f 22//156 2//156 23//156
f 25//157 22//157 23//157 24//157
f 30//158 7//158 32//158
f 33//159 55//159 57//159 62//159
f 6//160 32//160 7//160
f 26//161 25//161 24//161
f 33//162 34//162 55//162
f 46//163 43//163 63//163 61//163
f 35//164 36//164 34//164
f 35//165 37//165 36//165
f 36//166 37//166 64//166
f 38//167 39//167 37//167
f 37//168 39//168 64//168
f 40//169 63//169 41//169
f 43//170 44//170 42//170
f 52//171 48//171 49//171 172//171
f 43//172 45//172 44//172
f 46//173 47//173 45//173
f 47//174 48//174 45//174
f 47//175 49//175 48//175
f 60//176 49//176 47//176
f 59//177 50//177 60//177
f 50//178 59//178 53//178 51//178
f 172//179 51//179 52//179
f 54//180 51//180 53//180 57//180
f 52//181 54//181 58//181
f 58//182 54//182 55//182 56//182
f 45//183 61//183 63//183 44//183
f 58//184 53//184 59//184 52//184
f 36//185 64//185 38//185 62//185
f 34//186 36//186 62//186
f 42//187 44//187 63//187 40//187
f 56//188 34//188 62//188 57//188
f 48//189 52//189 59//189
f 94//190 96//190 70//190 71//190
f 64//191 42//191 40//191
f 58//192 56//192 57//192
f 40//193 38//193 64//193
f 45//194 48//194 60//194
f 66//195 67//195 65//195
f 171//196 92//196 66//196
f 92//197 68//197 66//197
f 69//198 68//198 92//198
f 68//199 70//199 95//199
f 95//200 70//200 96//200
f 69//201 70//201 68//201
f 70//202 69//202 93//202 71//202
f 76//203 74//203 91//203 90//203
f 72//204 73//204 71//204
f 72//205 91//205 74//205
f 74//206 75//206 73//206
f 76//207 90//207 78//207 77//207
f 76//208 89//208 75//208
f 76//209 77//209 89//209
f 77//210 78//210 80//210 79//210
f 77//211 79//211 88//211
f 82//212 81//212 80//212 86//212
f 79//213 81//213 88//213
f 80//214 81//214 79//214
f 82//215 83//215 81//215
f 75//216 89//216 90//216 91//216
f 83//217 65//217 87//217
f 84//218 65//218 83//218
f 82//219 85//219 84//219
f 67//220 95//220 92//220
f 91//221 93//221 73//221
f 125//222 124//222 99//222 100//222
f 65//223 67//223 92//223
f 73//224 75//224 91//224
f 89//225 88//225 78//225
f 80//226 78//226 88//226
f 93//227 91//227 72//227
f 94//228 73//228 93//228
f 78//229 90//229 89//229
f 86//230 80//230 87//230
f 88//231 87//231 80//231
f 96//232 94//232 93//232
f 87//233 65//233 86//233
f 95//234 96//234 69//234
f 99//235 124//235 98//235
f 97//236 122//236 99//236
f 170//237 126//237 102//237 101//237
f 126//238 169//238 122//238
f 99//239 169//239 100//239
f 169//240 126//240 170//240
f 100//241 101//241 125//241
f 101//242 102//242 123//242 103//242
f 101//243 103//243 104//243
f 107//244 103//244 123//244 121//244
f 103//245 105//245 104//245
f 105//246 106//246 104//246
f 108//247 121//247 110//247 109//247
f 108//248 120//248 106//248
f 108//209 109//209 120//209
f 109//249 110//249 112//249 111//249
f 109//250 111//250 119//250
f 119//251 118//251 112//251 110//251
f 111//252 113//252 118//252
f 113//253 115//253 118//253
f 114//254 117//254 116//254
f 97//255 98//255 116//255
f 104//256 106//256 123//256
f 106//257 120//257 121//257
f 98//258 124//258 122//258
f 121//259 123//259 106//259
f 120//260 119//260 110//260
f 124//261 125//261 126//261
f 132//262 127//262 131//262 135//262
f 110//263 121//263 120//263
f 118//264 115//264 114//264
f 114//265 112//265 118//265
f 125//266 104//266 102//266
f 115//267 98//267 117//267
f 129//268 130//268 133//268
f 129//269 128//269 130//269
f 168//270 130//270 128//270
f 157//271 155//271 152//271 151//271
f 129//272 133//272 134//272
f 130//273 166//273 133//273
f 166//274 136//274 133//274
f 134//275 133//275 137//275
f 132//276 138//276 136//276
f 145//277 134//277 140//277
f 136//278 139//278 137//278
f 135//279 146//279 138//279
f 136//280 141//280 139//280
f 139//281 165//281 142//281
f 139//282 142//282 140//282
f 141//283 146//283 147//283
f 141//284 162//284 165//284
f 144//285 141//285 147//285
f 142//286 144//286 143//286
f 145//287 140//287 149//287
f 143//288 150//288 149//288
f 144//289 147//289 148//289
f 150//290 144//290 163//290
f 150//291 163//291 164//291
f 148//292 147//292 151//292
f 164//293 152//293 150//293
f 151//294 147//294 154//294
f 151//295 154//295 157//295
f 170//296 100//296 148//296 164//296
f 153//297 152//297 155//297
f 145//298 153//298 160//298
f 160//299 156//299 167//299
f 154//300 158//300 157//300
f 167//301 155//301 159//301
f 157//302 158//302 159//302
f 167//303 161//303 129//303
f 160//304 167//304 129//304
f 159//305 127//305 161//305
f 160//306 129//306 134//306
f 161//307 128//307 129//307
f 127//308 158//308 131//308
f 142//309 165//309 12//309
f 165//310 13//310 12//310
f 162//311 142//311 173//311
f 167//312 159//312 84//312 85//312
f 170//313 164//313 169//313
f 163//314 148//314 100//314
f 163//315 100//315 169//315
f 171//316 159//316 161//316
f 175//317 174//317 177//317 178//317
f 171//318 65//318 84//318
f 171//319 84//319 159//319
f 50//320 166//320 130//320
f 49//321 50//321 130//321
f 168//322 172//322 49//322
f 177//323 174//323 176//323 178//323
f 174//324 175//324 176//324
f 181//325 182//325 179//325 180//325
f 176//326 175//326 178//326
f 182//327 183//327 179//327
f 183//328 182//328 181//328 180//328
f 186//329 187//329 185//329 184//329
f 183//330 180//330 179//330
f 185//331 187//331 188//331 184//331
f 186//332 188//332 187//332
f 184//333 188//333 186//333
f 193//334 190//334 191//334 192//334
f 189//335 191//335 190//335
f 189//336 190//336 193//336 192//336
f 192//337 191//337 189//337
f 197//338 198//338 199//338
f 199//339 198//339 197//339
f 202//340 200//340 201//340
f 200//341 202//341 201//341
f 207//340 206//340 208//340
f 206//341 207//341 208//341
