# Blender v2.79 (sub 0) OBJ File: 'eliche.blend'
# www.blender.org
mtllib elica.mtl
o Cone
v 0.225235 0.276099 -0.138685
v 0.353960 0.029696 -0.138879
v 0.271739 -0.228760 -0.138725
v -0.008369 -0.360046 -0.138517
v -0.248708 -0.246966 -0.138980
v -0.353176 -0.040294 -0.138863
v -0.277422 0.222043 -0.138770
v -0.041319 0.352807 -0.138864
v 0.106984 -0.081738 0.180603
v 0.097525 0.080704 0.179786
v -0.058368 0.119276 0.180562
v -0.037422 -0.123479 0.179682
v -0.127198 -0.033925 0.179867
v -0.068918 0.008294 0.007254
v -0.124246 0.098529 -0.021345
v -0.959257 0.313422 -0.144760
v -1.714894 0.322363 -0.149892
v -2.453362 0.099012 -0.021689
v -1.717812 -0.294504 0.204189
v -0.904917 -0.277729 0.194560
v -0.113492 -0.059847 0.069498
v -0.414371 0.214253 -0.087837
v -2.462166 -0.060563 0.069907
v -0.399651 -0.187839 0.119383
v -1.714894 -0.307289 0.164367
v -2.224861 -0.187858 0.119394
v -2.453362 -0.083938 0.036164
v -2.499972 0.007537 0.007238
v -2.224861 0.202932 -0.104919
v -1.717812 0.309578 -0.189713
v -0.904917 0.292804 -0.180085
v -0.386051 0.191442 -0.121904
v -0.123067 -0.082816 0.035494
v -0.113755 0.075130 -0.055060
v -2.462167 0.075637 -0.055431
v -0.959256 -0.298347 0.159235
v 0.008324 0.070750 0.006931
v 0.097124 0.122233 -0.020753
v 0.313250 0.959485 -0.144760
v 0.322192 1.715122 -0.149892
v 0.098840 2.453591 -0.021689
v -0.294676 1.718040 0.204189
v -0.277901 0.905144 0.194560
v -0.059398 0.112688 0.069109
v 0.214081 0.414599 -0.087837
v -0.060735 2.462394 0.069907
v -0.188011 0.399879 0.119383
v -0.307461 1.715122 0.164368
v -0.188029 2.225090 0.119394
v -0.084109 2.453590 0.036164
v 0.007366 2.500200 0.007238
v 0.202760 2.225090 -0.104919
v 0.309407 1.718039 -0.189713
v 0.292632 0.905145 -0.180085
v 0.191271 0.386279 -0.121904
v -0.082089 0.121703 0.034991
v 0.074530 0.113391 -0.054882
v 0.075465 2.462395 -0.055431
v -0.298519 0.959484 0.159235
v 0.069969 -0.006387 0.007223
v 0.121775 -0.096737 -0.020678
v 0.959313 -0.313022 -0.144760
v 1.714950 -0.321963 -0.149892
v 2.212723 -0.213889 -0.087858
v 2.453419 -0.098612 -0.021689
v 2.236178 0.176787 0.136390
v 1.717868 0.294904 0.204189
v 0.904972 0.278129 0.194560
v 0.113371 0.060140 0.069432
v 0.414427 -0.213853 -0.087837
v 0.399707 0.188239 0.119383
v 1.714950 0.307689 0.164367
v 2.212723 0.199614 0.102333
v 2.458387 0.072633 0.053026
v 2.500028 -0.007137 0.007238
v 2.462223 -0.075237 -0.055431
v 1.717868 -0.309178 -0.189714
v 0.904973 -0.292404 -0.180085
v 0.386107 -0.191043 -0.121904
v 0.122847 0.083044 0.035449
v 0.113156 -0.074223 -0.054937
v 2.236178 -0.191061 -0.121914
v 0.959311 0.298747 0.159235
v -0.006360 -0.068139 0.007522
v -0.098088 -0.123687 -0.021242
v -0.313193 -0.959085 -0.144760
v -0.322135 -1.714722 -0.149892
v -0.098783 -2.453191 -0.021689
v 0.060791 -2.461994 0.069907
v 0.176615 -2.235950 0.136389
v 0.294732 -1.717640 0.204189
v 0.277957 -0.904744 0.194560
v 0.060635 -0.114254 0.069848
v -0.214025 -0.414199 -0.087837
v 0.188067 -0.399479 0.119383
v 0.307517 -1.714722 0.164367
v 0.199443 -2.212495 0.102333
v 0.084166 -2.453190 0.036164
v -0.007309 -2.499800 0.007237
v -0.202704 -2.224689 -0.104919
v -0.309350 -1.717640 -0.189714
v -0.292576 -0.904745 -0.180085
v -0.191214 -0.385879 -0.121904
v 0.083849 -0.124358 0.035998
v -0.074799 -0.113470 -0.055096
v -0.075409 -2.461995 -0.055431
v 0.298575 -0.959083 0.159235
vn 0.7469 0.3898 0.5387
vn 0.8060 -0.2561 0.5337
vn 0.3584 -0.7639 0.5366
vn -0.3605 -0.7640 0.5351
vn -0.7510 -0.3799 0.5401
vn -0.4128 0.7456 0.5231
vn -0.1381 0.1245 0.9826
vn -0.0000 0.4978 0.8673
vn -0.0683 0.5935 0.8019
vn 0.0916 0.4919 0.8658
vn -0.1313 0.2254 0.9654
vn -0.4366 0.4659 0.7696
vn -0.0491 0.4561 0.8886
vn 0.1506 0.6113 0.7770
vn 0.0000 -0.4978 -0.8673
vn -0.1381 -0.1245 -0.9826
vn 0.1107 -0.7817 -0.6138
vn 0.0000 -0.4980 -0.8672
vn 0.0000 -0.4977 -0.8673
vn -0.2423 -0.9288 0.2804
vn -0.4965 0.7688 -0.4031
vn 0.8609 0.5023 -0.0807
vn 0.4306 -0.7995 0.4188
vn -0.8975 -0.4359 0.0678
vn 0.1245 0.1381 0.9826
vn 0.4978 -0.0000 0.8673
vn 0.5935 0.0683 0.8019
vn 0.4919 -0.0916 0.8658
vn 0.2247 0.1317 0.9655
vn 0.4659 0.4366 0.7696
vn 0.4561 0.0487 0.8886
vn 0.6146 -0.1545 0.7736
vn -0.4978 -0.0000 -0.8673
vn -0.1245 0.1381 -0.9826
vn -0.7801 -0.1102 -0.6159
vn -0.9288 0.2423 0.2804
vn 0.7688 0.4965 -0.4031
vn 0.4783 -0.8735 -0.0903
vn -0.7996 -0.4312 0.4179
vn -0.4359 0.8975 0.0678
vn 0.0000 -0.4978 0.8673
vn 0.1328 -0.2222 0.9659
vn 0.1802 -0.3789 0.9077
vn 0.0490 -0.4561 0.8886
vn 0.1246 -0.4442 0.8872
vn -0.1589 -0.6170 0.7707
vn -0.0000 0.4978 -0.8673
vn -0.1679 0.7164 -0.6772
vn -0.1105 0.7811 -0.6145
vn 0.0000 0.4976 -0.8674
vn 0.0000 0.4979 -0.8672
vn -0.8758 -0.4740 -0.0912
vn -0.4307 0.7995 0.4187
vn 0.4830 0.8440 0.2331
vn -0.4978 -0.0000 0.8673
vn -0.5371 -0.0515 0.8419
vn -0.5343 0.0640 0.8429
vn -0.2226 -0.1326 0.9659
vn -0.3789 -0.1802 0.9077
vn -0.4561 -0.0495 0.8885
vn -0.7164 0.1679 0.6772
vn -0.6137 0.1549 0.7742
vn 0.4978 0.0000 -0.8673
vn 0.1245 -0.1381 -0.9826
vn 0.7829 0.1110 -0.6122
vn -0.7688 -0.4965 -0.4031
vn -0.4974 0.8637 -0.0816
vn 0.7993 0.4300 0.4198
vn 0.4359 -0.8975 0.0678
vn -0.7710 0.2672 0.5781
vn 0.7819 0.0487 0.6215
vn 0.2197 -0.7732 0.5949
vn -0.5664 -0.5691 0.5961
vn 0.0002 -0.0001 -1.0000
vn -0.0008 -0.0011 1.0000
vn 0.0237 -0.4983 -0.8667
vn 0.0503 0.4590 0.8870
vn -0.0683 -0.5935 -0.8019
vn -0.0002 -0.4987 -0.8668
vn -0.4366 -0.4659 -0.7696
vn 0.0188 0.9183 -0.3954
vn 0.0916 -0.4919 -0.8658
vn 0.0188 -0.9183 0.3954
vn 0.4258 0.8423 -0.3304
vn -0.2423 0.9288 -0.2804
vn 0.2045 -0.9491 0.2394
vn -0.8975 0.4358 -0.0678
vn 0.2091 0.9214 -0.3275
vn -0.4985 -0.0236 -0.8666
vn 0.8679 -0.4892 0.0860
vn -0.4965 -0.7688 0.4031
vn 0.4590 -0.0503 0.8870
vn -0.5935 0.0683 -0.8019
vn -0.4979 0.0000 -0.8672
vn -0.4659 0.4366 -0.7696
vn 0.9183 -0.0188 -0.3954
vn -0.4919 -0.0916 -0.8658
vn -0.9183 -0.0188 0.3954
vn 0.8427 -0.4264 -0.3287
vn 0.9288 0.2423 -0.2804
vn -0.9491 -0.2045 0.2394
vn 0.4359 0.8975 -0.0678
vn 0.9214 -0.2091 -0.3275
vn -0.0232 0.4992 -0.8662
vn -0.4703 -0.8788 0.0805
vn -0.7688 0.4965 0.4031
vn -0.0503 -0.4590 0.8870
vn -0.0002 0.4969 -0.8678
vn 0.0559 0.5188 -0.8530
vn 0.2459 0.9046 0.3483
vn 0.0854 0.4998 -0.8619
vn -0.0188 -0.9183 -0.3954
vn -0.0188 0.9183 0.3954
vn 0.2459 -0.9046 -0.3483
vn 0.4918 -0.8105 -0.3183
vn -0.4265 -0.8427 -0.3285
vn -0.2045 0.9491 0.2394
vn 0.8975 -0.4359 -0.0678
vn -0.2091 -0.9214 -0.3275
vn 0.4990 0.0233 -0.8663
vn -0.8692 0.4869 0.0858
vn 0.2156 0.7870 0.5781
vn -0.4590 0.0503 0.8870
vn 0.4977 0.0000 -0.8674
vn 0.4659 -0.4366 -0.7696
vn 0.9046 -0.2459 0.3483
vn -0.9183 0.0188 -0.3954
vn 0.9183 0.0188 0.3954
vn -0.8424 0.4259 -0.3301
vn -0.9288 -0.2423 -0.2804
vn 0.9491 0.2045 0.2394
vn -0.4359 -0.8975 -0.0678
vn -0.9214 0.2091 -0.3275
vn 0.8105 -0.4918 0.3183
vn 0.5059 0.8578 0.0909
usemtl Material
s off
f 1//1 10//1 2//1
f 2//2 9//2 3//2
f 3//3 9//3 4//3
f 4//4 12//4 5//4
f 13//5 6//5 5//5
f 11//6 8//6 7//6
f 19//7 23//7 26//7
f 17//8 23//8 16//8
f 23//9 17//9 29//9
f 23//10 29//10 18//10
f 15//11 22//11 14//11
f 23//12 18//12 28//12
f 22//13 24//13 21//13
f 22//14 21//14 14//14
f 22//8 23//8 20//8
f 25//15 35//15 36//15
f 30//16 35//16 29//16
f 24//17 36//17 33//17
f 31//18 34//18 35//18
f 34//19 36//19 35//19
f 19//20 26//20 25//20
f 18//21 29//21 35//21
f 14//22 34//22 15//22
f 24//23 33//23 21//23
f 23//24 28//24 27//24
f 42//25 46//25 49//25
f 40//26 46//26 39//26
f 46//27 40//27 52//27
f 46//28 52//28 41//28
f 38//29 45//29 37//29
f 46//30 41//30 51//30
f 45//31 47//31 44//31
f 45//32 44//32 37//32
f 45//26 46//26 43//26
f 48//33 58//33 59//33
f 53//34 58//34 52//34
f 47//35 59//35 56//35
f 54//33 57//33 58//33
f 57//33 59//33 58//33
f 42//36 49//36 48//36
f 41//37 52//37 58//37
f 37//38 57//38 38//38
f 47//39 56//39 44//39
f 46//40 51//40 50//40
f 66//41 63//41 64//41
f 66//41 64//41 65//41
f 61//42 70//42 60//42
f 66//43 65//43 75//43
f 70//44 71//44 69//44
f 74//45 66//45 75//45
f 70//46 69//46 60//46
f 70//41 66//41 68//41
f 63//41 66//41 70//41
f 72//47 82//47 83//47
f 76//48 82//48 75//48
f 71//49 83//49 80//49
f 78//50 81//50 82//50
f 81//51 83//51 82//51
f 60//52 81//52 61//52
f 71//53 80//53 69//53
f 66//54 74//54 73//54
f 87//55 90//55 86//55
f 90//56 87//56 100//56
f 90//57 100//57 88//57
f 85//58 94//58 84//58
f 90//59 88//59 99//59
f 94//60 95//60 93//60
f 89//61 90//61 99//61
f 94//62 93//62 84//62
f 94//55 90//55 92//55
f 96//63 106//63 107//63
f 101//64 106//64 100//64
f 95//65 107//65 104//65
f 102//63 105//63 106//63
f 105//63 107//63 106//63
f 88//66 100//66 106//66
f 84//67 105//67 85//67
f 95//68 104//68 93//68
f 89//69 99//69 98//69
f 7//70 6//70 13//70 11//70
f 2//71 10//71 9//71
f 4//72 9//72 12//72
f 12//73 13//73 5//73
f 8//74 1//74 2//74 3//74 4//74 5//74 6//74 7//74
f 9//75 10//75 11//75 13//75 12//75
f 34//76 14//76 33//76 36//76
f 20//8 23//8 19//8
f 22//77 20//77 24//77
f 16//8 23//8 22//8
f 25//78 26//78 35//78
f 30//15 31//15 35//15
f 32//79 34//79 31//79
f 27//80 28//80 35//80
f 30//81 17//81 16//81 31//81
f 26//82 27//82 35//82
f 36//83 20//83 19//83 25//83
f 32//84 22//84 15//84 34//84
f 29//85 17//85 30//85
f 20//86 36//86 24//86
f 28//87 18//87 35//87
f 31//88 16//88 22//88 32//88
f 57//89 37//89 56//89 59//89
f 21//90 33//90 14//90
f 26//91 23//91 27//91
f 43//26 46//26 42//26
f 45//92 43//92 47//92
f 39//26 46//26 45//26
f 48//93 49//93 58//93
f 53//33 54//33 58//33
f 55//94 57//94 54//94
f 50//95 51//95 58//95
f 53//96 40//96 39//96 54//96
f 49//97 50//97 58//97
f 59//98 43//98 42//98 48//98
f 55//99 45//99 38//99 57//99
f 52//100 40//100 53//100
f 43//101 59//101 47//101
f 51//102 41//102 58//102
f 54//103 39//103 45//103 55//103
f 81//104 60//104 80//104 83//104
f 44//105 56//105 37//105
f 49//106 46//106 50//106
f 68//41 66//41 67//41
f 70//107 68//107 71//107
f 62//41 63//41 70//41
f 72//47 73//47 82//47
f 77//47 78//47 82//47
f 79//108 81//108 78//108
f 74//109 75//109 82//109
f 73//110 72//110 67//110 66//110
f 73//111 74//111 82//111
f 77//112 63//112 62//112 78//112
f 83//113 68//113 67//113 72//113
f 77//114 82//114 64//114 63//114
f 82//115 76//115 65//115 64//115
f 79//116 70//116 61//116 81//116
f 68//117 83//117 71//117
f 75//118 65//118 76//118
f 78//119 62//119 70//119 79//119
f 105//120 84//120 104//120 107//120
f 69//121 80//121 60//121
f 1//122 8//122 11//122 10//122
f 92//55 90//55 91//55
f 94//123 92//123 95//123
f 86//55 90//55 94//55
f 96//63 97//63 106//63
f 101//63 102//63 106//63
f 103//124 105//124 102//124
f 98//125 99//125 106//125
f 97//126 96//126 91//126 90//126
f 97//63 98//63 106//63
f 101//127 87//127 86//127 102//127
f 107//128 92//128 91//128 96//128
f 103//129 94//129 85//129 105//129
f 100//130 87//130 101//130
f 92//131 107//131 95//131
f 99//132 88//132 106//132
f 102//133 86//133 94//133 103//133
f 98//134 97//134 90//134 89//134
f 93//135 104//135 84//135
